<?xml version="1.0" standalone="no"?>
<!DOCTYPE svg PUBLIC "-//W3C//DTD SVG 20010904//EN"
 "http://www.w3.org/TR/2001/REC-SVG-20010904/DTD/svg10.dtd">
<svg version="1.0" xmlns="http://www.w3.org/2000/svg"
 width="513.000000pt" height="513.000000pt" viewBox="0 0 513.000000 513.000000"
 preserveAspectRatio="xMidYMid meet">
<metadata>
Created by potrace 1.11, written by Peter Selinger 2001-2013
</metadata>
<g transform="translate(0.000000,513.000000) scale(0.100000,-0.100000)"
fill="#000000" stroke="none">
<path d="M10 2560 l0 -2560 2560 0 2560 0 0 2560 0 2560 -2560 0 -2560 0 0
-2560z m3075 1152 c388 -108 647 -441 648 -832 0 -58 -6 -132 -13 -165 -49
-234 -186 -435 -382 -562 -64 -41 -202 -103 -230 -103 -7 0 -132 119 -277 264
l-264 264 194 4 c193 3 194 3 247 32 95 53 145 138 145 246 1 111 -60 207
-162 254 -45 20 -61 21 -522 24 l-475 3 -237 244 -237 243 0 51 0 51 218 3
c119 2 453 3 742 2 510 -1 527 -2 605 -23z m-294 -1729 l594 -598 -395 -3
-395 -3 -547 552 -548 552 0 48 0 49 349 0 348 0 594 -597z"/>
</g>
</svg>
